# xmcd
#
# Track frame offsets: 
#        150
#        13042
#        29012
#        48830
#        64510
#        79774
#        91167
#        104507
#        116216
#        130546
#        147138
#        160807
#
# Disc length: 2448 seconds
#
# Revision: 0
# Processed by: cddbd v1.5.2PL0 Copyright (c) Steve Scherf et al.
# Submitted via: ExactAudioCopy v0.90b4
#
DISCID=96098e0c
DTITLE=Prairie Flyer - Just An Old Dog
DYEAR=2006
DGENRE=Bluegrass
TTITLE0=Prairie Flyer - When The Day is Done
TTITLE1=Prairie Flyer -  A Long Time Ago
TTITLE2=Prairie Flyer - The Rocket
TTITLE3=Prairie Flyer - Let Me Be
TTITLE4=Prairie Flyer - I Want to Go Home
TTITLE5=Prairie Flyer - Who Let The Cows Out
TTITLE6=Prairie Flyer - The One You Left Behind
TTITLE7=Prairie Flyer - Southern Cuisine
TTITLE8=Prairie Flyer - Just an Old Dog
TTITLE9=Prairie Flyer - Steering Wheel
TTITLE10=Prairie Flyer - Blue Side Of Midnight
TTITLE11=Prairie Flyer - Tecumseh Valley
EXTD=
EXTT0=
EXTT1=
EXTT2=
EXTT3=
EXTT4=
EXTT5=
EXTT6=
EXTT7=
EXTT8=
EXTT9=
EXTT10=
EXTT11=
PLAYORDER=
